<svg width="1141.6" height="74.205" viewBox="0 0 1141.6 74.205" xmlns="http://www.w3.org/2000/svg"><g id="svgGroup" stroke-linecap="round" fill-rule="evenodd" font-size="9pt" stroke="#000" stroke-width="0.25mm" fill="#000" style="stroke:#000;stroke-width:0.25mm;fill:#000"><path d="M 838.5 72.602 L 853 72.602 L 862.9 39.102 L 872.8 72.602 L 887.4 72.602 L 903.3 19.002 L 888.2 19.002 L 878.9 55.302 L 869 19.002 L 856.7 19.002 L 846.9 55.302 L 837.6 19.002 L 822.5 19.002 L 838.5 72.602 Z M 41.4 24.802 L 56.6 24.002 A 26.814 26.814 0 0 0 48.971 7.387 C 45.978 4.49 42.121 2.33 37.383 1.117 A 38.195 38.195 0 0 0 27.9 0.002 C 18.779 0.002 11.65 2.629 7.078 7.102 A 19.464 19.464 0 0 0 1.3 21.402 A 19.78 19.78 0 0 0 2.768 29.451 C 5.654 36.02 12.992 39.559 26.5 42.602 C 36.53 44.864 40.418 47.07 41.723 50.119 A 8.205 8.205 0 0 1 42.3 53.402 C 42.3 58.802 38 61.602 30.4 61.602 A 19.84 19.84 0 0 1 24.689 60.84 C 20.175 59.485 17.296 56.351 15.952 51.69 A 21.65 21.65 0 0 1 15.3 48.502 L 0 49.202 A 26.361 26.361 0 0 0 5.313 63.976 C 8.398 67.918 12.757 70.853 18.256 72.545 A 40.603 40.603 0 0 0 30.2 74.202 C 39.396 74.202 46.726 71.774 51.499 67.418 A 19.242 19.242 0 0 0 57.7 52.702 C 57.7 42.519 51.921 35.625 34.748 31.518 A 96.657 96.657 0 0 0 31.5 30.802 A 128.342 128.342 0 0 1 30.468 30.584 C 19.709 28.266 16.7 26.041 16.7 20.902 C 16.7 16.396 20.11 13.271 25.761 12.697 A 19.198 19.198 0 0 1 27.7 12.602 A 16.41 16.41 0 0 1 33.263 13.494 C 38.035 15.207 40.803 19.281 41.4 24.802 Z M 1113.1 47.002 L 1113.1 1.502 L 1097.9 1.502 L 1097.9 47.002 A 19.097 19.097 0 0 1 1097.034 52.966 C 1095.244 58.416 1090.72 61.402 1083.9 61.402 A 17.914 17.914 0 0 1 1078.023 60.504 C 1072.671 58.649 1069.8 53.974 1069.8 47.002 L 1069.8 1.502 L 1054.6 1.502 L 1054.6 47.002 C 1054.6 60.172 1061.713 69.566 1073.642 72.885 A 38.246 38.246 0 0 0 1083.9 74.202 C 1101.8 74.202 1113.1 63.602 1113.1 47.002 Z M 629.5 36.802 L 644.5 36.202 C 643.3 26.328 636.565 19.008 623.665 17.937 A 40.692 40.692 0 0 0 620.3 17.802 A 42.646 42.646 0 0 0 611.749 18.596 C 608.805 19.2 606.289 20.137 604.2 21.362 A 15.018 15.018 0 0 0 596.5 35.002 A 12.217 12.217 0 0 0 601.542 45.962 C 604.077 47.788 607.712 49.206 612.756 50.368 A 94.812 94.812 0 0 0 618.6 51.502 C 624.328 52.446 627.164 53.43 628.479 54.853 A 4.183 4.183 0 0 1 629.5 57.902 A 4.467 4.467 0 0 1 626.809 62.136 C 626.068 62.506 625.185 62.778 624.175 62.954 A 18.559 18.559 0 0 1 621 63.202 C 614.5 63.202 611.3 60.302 610.4 55.202 L 595.2 55.702 A 17.595 17.595 0 0 0 605.44 70.724 C 607.795 71.891 610.564 72.757 613.754 73.268 A 45.201 45.201 0 0 0 620.9 73.802 A 43.573 43.573 0 0 0 630.294 72.862 C 633.369 72.18 636.026 71.133 638.199 69.741 A 13.784 13.784 0 0 0 644.9 57.602 A 12.425 12.425 0 0 0 639.058 46.2 C 636.215 44.339 632.205 42.917 626.758 41.83 A 93.827 93.827 0 0 0 621.9 41.002 A 47.5 47.5 0 0 1 618.774 40.443 C 616.55 39.957 614.948 39.362 613.853 38.565 A 4.702 4.702 0 0 1 611.9 34.402 A 5.37 5.37 0 0 1 615.255 29.315 C 616.051 28.947 616.984 28.682 618.047 28.536 A 15.04 15.04 0 0 1 620.1 28.402 C 625.5 28.402 628.8 31.602 629.5 36.802 Z M 743.1 72.602 L 758.1 72.602 L 758.1 43.102 A 24.241 24.241 0 0 1 758.577 38.095 C 759.729 32.661 762.932 29.702 767.8 29.702 A 8.333 8.333 0 0 1 771.421 30.423 C 774.003 31.653 775.289 34.429 775.77 38.554 A 39.665 39.665 0 0 1 776 43.102 L 776 72.602 L 791 72.602 L 791 38.102 A 26.801 26.801 0 0 0 789.622 29.251 C 787.405 22.912 782.581 18.844 775.669 17.976 A 23.023 23.023 0 0 0 772.8 17.802 C 765.7 17.802 759.9 20.602 756.9 27.802 L 756.6 19.002 L 743.1 19.002 L 743.1 72.602 Z M 572.2 64.002 L 572.4 72.602 L 586.1 72.602 L 586.1 19.002 L 571.1 19.002 L 571.1 49.302 A 22.698 22.698 0 0 1 570.68 53.861 C 569.591 59.154 566.428 61.785 561.721 61.898 A 13.314 13.314 0 0 1 561.4 61.902 A 7.977 7.977 0 0 1 557.658 61.096 C 554.929 59.67 553.592 56.303 553.505 50.607 A 39.555 39.555 0 0 1 553.5 50.002 L 553.5 19.002 L 538.5 19.002 L 538.5 53.502 A 29.449 29.449 0 0 0 539.547 61.642 C 541.597 68.76 546.585 72.992 553.869 73.697 A 23.16 23.16 0 0 0 556.1 73.802 A 21.474 21.474 0 0 0 562.652 72.862 A 15.113 15.113 0 0 0 572.2 64.002 Z M 162.9 72.602 L 162.9 62.302 L 161.4 62.302 A 4.377 4.377 0 0 1 160.141 62.147 C 158.98 61.796 158.4 60.787 158.4 58.502 L 158.4 40.202 A 28.33 28.33 0 0 0 156.963 30.805 C 153.971 22.281 146.325 17.802 134.2 17.802 A 36.279 36.279 0 0 0 124.479 19.012 C 116.17 21.326 110.884 26.944 109.4 35.702 L 124.4 36.402 A 10.998 10.998 0 0 1 125.864 32.589 C 127.012 30.8 128.715 29.605 130.997 29.053 A 13.634 13.634 0 0 1 134.2 28.702 C 139.907 28.702 143.08 31.868 143.377 38.2 A 21.407 21.407 0 0 1 143.4 39.202 L 126.1 42.602 C 114.4 45.002 108.5 49.802 108.5 59.202 A 13.208 13.208 0 0 0 116.57 71.675 C 118.772 72.713 121.36 73.386 124.249 73.661 A 32.225 32.225 0 0 0 127.3 73.802 A 28.847 28.847 0 0 0 134.533 72.936 C 137.132 72.262 139.389 71.213 141.253 69.85 A 14.586 14.586 0 0 0 145.8 64.502 A 12.389 12.389 0 0 0 147.059 68.151 C 149.174 72.013 153.149 73.202 157.5 73.202 A 24.196 24.196 0 0 0 158.347 73.187 C 160.059 73.127 161.77 72.898 162.7 72.658 A 5.451 5.451 0 0 0 162.9 72.602 Z M 317.1 56.802 L 302 55.902 A 9.615 9.615 0 0 1 299.764 59.632 C 298.472 60.937 296.795 61.771 294.782 62.155 A 14.858 14.858 0 0 1 292 62.402 A 13.104 13.104 0 0 1 286.361 61.259 C 282.654 59.506 280.409 55.721 280.2 49.802 L 317.8 49.802 L 317.8 46.802 A 37.297 37.297 0 0 0 315.829 34.35 C 312.12 23.863 303.403 17.802 291.6 17.802 A 28.817 28.817 0 0 0 278.21 20.855 C 271.79 24.19 267.342 30.106 265.564 37.846 A 35.518 35.518 0 0 0 264.7 45.802 A 32.431 32.431 0 0 0 267.309 59.029 C 271.409 68.253 280.105 73.802 291.7 73.802 A 32.592 32.592 0 0 0 302.969 71.925 A 21.917 21.917 0 0 0 317.1 56.802 Z M 959 56.802 L 943.9 55.902 A 9.615 9.615 0 0 1 941.664 59.632 C 940.372 60.937 938.695 61.771 936.682 62.155 A 14.858 14.858 0 0 1 933.9 62.402 A 13.104 13.104 0 0 1 928.261 61.259 C 924.554 59.506 922.309 55.721 922.1 49.802 L 959.7 49.802 L 959.7 46.802 A 37.297 37.297 0 0 0 957.729 34.35 C 954.02 23.863 945.303 17.802 933.5 17.802 A 28.817 28.817 0 0 0 920.11 20.855 C 913.69 24.19 909.242 30.106 907.464 37.846 A 35.518 35.518 0 0 0 906.6 45.802 A 32.431 32.431 0 0 0 909.209 59.029 C 913.309 68.253 922.005 73.802 933.6 73.802 A 32.592 32.592 0 0 0 944.869 71.925 A 21.917 21.917 0 0 0 959 56.802 Z M 187.3 26.602 L 187.3 1.602 L 172.3 1.602 L 172.3 72.602 L 186.6 72.602 L 186.9 64.702 A 16.458 16.458 0 0 0 199.237 73.487 A 23.044 23.044 0 0 0 203.1 73.802 A 20.438 20.438 0 0 0 222.47 61.003 C 223.952 57.713 224.904 53.868 225.251 49.565 A 46.723 46.723 0 0 0 225.4 45.802 A 39.975 39.975 0 0 0 223.755 34.015 C 220.627 23.893 213.22 17.802 203.1 17.802 C 195.8 17.802 190.1 21.602 187.3 26.602 Z M 983.9 26.602 L 983.9 1.602 L 968.9 1.602 L 968.9 72.602 L 983.2 72.602 L 983.5 64.702 A 16.458 16.458 0 0 0 995.837 73.487 A 23.044 23.044 0 0 0 999.7 73.802 A 20.438 20.438 0 0 0 1019.07 61.003 C 1020.552 57.713 1021.504 53.868 1021.851 49.565 A 46.723 46.723 0 0 0 1022 45.802 A 39.975 39.975 0 0 0 1020.355 34.015 C 1017.227 23.893 1009.82 17.802 999.7 17.802 C 992.4 17.802 986.7 21.602 983.9 26.602 Z M 351.9 72.602 L 377 72.602 C 399.6 72.602 412.3 59.902 412.3 37.202 A 45.288 45.288 0 0 0 409.962 22.124 C 405.279 8.84 393.695 1.602 376.4 1.602 L 351.9 1.602 L 351.9 72.602 Z M 454.7 18.302 L 454.7 21.002 L 446.9 21.002 L 446.9 32.202 L 454.7 32.202 L 454.7 72.602 L 469.7 72.602 L 469.7 32.202 L 483 32.202 L 483 21.002 L 469.7 21.002 L 469.7 19.002 A 10.231 10.231 0 0 1 469.952 16.6 C 470.427 14.645 471.592 13.436 473.627 12.993 A 9.306 9.306 0 0 1 475.6 12.802 L 483.8 12.802 L 483.8 1.602 L 472.4 1.602 A 26.612 26.612 0 0 0 465.713 2.372 C 459.538 3.978 456.061 8.048 455.029 14.136 A 24.956 24.956 0 0 0 454.7 18.302 Z M 499.5 18.302 L 499.5 21.002 L 491.7 21.002 L 491.7 32.202 L 499.5 32.202 L 499.5 72.602 L 514.5 72.602 L 514.5 32.202 L 527.8 32.202 L 527.8 21.002 L 514.5 21.002 L 514.5 19.002 A 10.231 10.231 0 0 1 514.752 16.6 C 515.227 14.645 516.392 13.436 518.427 12.993 A 9.306 9.306 0 0 1 520.4 12.802 L 528.6 12.802 L 528.6 1.602 L 517.2 1.602 A 26.612 26.612 0 0 0 510.513 2.372 C 504.338 3.978 500.861 8.048 499.829 14.136 A 24.956 24.956 0 0 0 499.5 18.302 Z M 88.7 72.602 L 101.7 72.602 L 101.7 61.402 L 94.2 61.402 C 90.187 61.402 88.004 60.154 87.651 55.99 A 15.275 15.275 0 0 1 87.6 54.702 L 87.6 30.202 L 101.7 30.202 L 101.7 19.002 L 87.6 19.002 L 87.6 6.402 L 72.6 6.402 L 72.6 19.002 L 64 19.002 L 64 30.202 L 72.6 30.202 L 72.6 56.502 A 26.192 26.192 0 0 0 73.228 62.559 C 74.463 67.731 77.544 70.776 82.702 71.989 A 26.314 26.314 0 0 0 88.7 72.602 Z M 249.4 72.602 L 258.3 72.602 L 258.3 61.402 L 254.7 61.402 A 6.586 6.586 0 0 1 252.961 61.198 C 251.362 60.758 250.484 59.575 250.406 57.337 A 9.599 9.599 0 0 1 250.4 57.002 L 250.4 1.602 L 235.4 1.602 L 235.4 58.602 C 235.4 68.502 240.7 72.602 249.4 72.602 Z M 732.681 53.532 A 35.345 35.345 0 0 0 733.5 45.802 A 31.975 31.975 0 0 0 730.798 32.461 C 727.149 24.467 720 19.258 710.56 18.064 A 33.949 33.949 0 0 0 706.3 17.802 C 692.454 17.802 682.6 25.713 679.866 38.347 A 35.23 35.23 0 0 0 679.1 45.802 C 679.1 61.291 688.066 71.8 702.064 73.545 A 34.231 34.231 0 0 0 706.3 73.802 C 720.057 73.802 729.874 66.061 732.681 53.532 Z M 1126.4 72.602 L 1141.6 72.602 L 1141.6 1.602 L 1126.4 1.602 L 1126.4 72.602 Z M 420.8 72.602 L 435.8 72.602 L 435.8 19.002 L 420.8 19.002 L 420.8 72.602 Z M 654.1 72.602 L 669.1 72.602 L 669.1 19.002 L 654.1 19.002 L 654.1 72.602 Z M 376.4 59.802 L 367.1 59.802 L 367.1 14.402 L 376.4 14.402 A 26.97 26.97 0 0 1 384.611 15.536 C 392.712 18.126 396.6 25.191 396.6 37.102 C 396.6 50.054 392.002 57.277 382.39 59.246 A 29.894 29.894 0 0 1 376.4 59.802 Z M 696.517 56.15 A 10.344 10.344 0 0 0 706.3 62.302 C 713.8 62.302 718 56.202 718 45.802 C 718 41.567 717.303 38.045 715.971 35.357 A 10.213 10.213 0 0 0 706.3 29.302 A 10.198 10.198 0 0 0 697.324 34.037 C 696.34 35.537 695.602 37.373 695.127 39.515 A 29.175 29.175 0 0 0 694.5 45.802 C 694.5 49.986 695.196 53.475 696.517 56.15 Z M 187.3 45.802 A 31.304 31.304 0 0 0 187.608 50.305 C 188.711 57.882 192.736 62.302 198.9 62.302 C 205.6 62.302 210 56.202 210 45.802 C 210 35.402 205.7 29.302 199 29.302 A 10.097 10.097 0 0 0 190.096 34.064 C 188.275 36.872 187.3 40.85 187.3 45.802 Z M 983.9 45.802 A 31.304 31.304 0 0 0 984.208 50.305 C 985.311 57.882 989.336 62.302 995.5 62.302 C 1002.2 62.302 1006.6 56.202 1006.6 45.802 C 1006.6 35.402 1002.3 29.302 995.6 29.302 A 10.097 10.097 0 0 0 986.696 34.064 C 984.875 36.872 983.9 40.85 983.9 45.802 Z M 302.5 40.602 L 280.2 40.602 A 17.235 17.235 0 0 1 281.52 35.45 C 283.388 31.246 286.949 28.902 291.6 28.902 A 11.039 11.039 0 0 1 297.509 30.446 C 300.258 32.156 302.051 35.287 302.447 39.838 A 21.493 21.493 0 0 1 302.5 40.602 Z M 944.4 40.602 L 922.1 40.602 A 17.235 17.235 0 0 1 923.42 35.45 C 925.288 31.246 928.849 28.902 933.5 28.902 A 11.039 11.039 0 0 1 939.409 30.446 C 942.158 32.156 943.951 35.287 944.347 39.838 A 21.493 21.493 0 0 1 944.4 40.602 Z M 131.2 51.202 L 143.4 48.602 L 143.4 51.202 C 143.4 57.916 139.599 62.273 133.653 63.279 A 16.505 16.505 0 0 1 130.9 63.502 C 126.564 63.502 124.182 61.636 123.924 58.406 A 7.566 7.566 0 0 1 123.9 57.802 C 123.9 54.874 125.58 52.926 128.998 51.782 A 18.791 18.791 0 0 1 131.2 51.202 Z M 420.5 12.402 L 436 12.402 L 436 0.402 L 420.5 0.402 L 420.5 12.402 Z M 653.8 12.402 L 669.3 12.402 L 669.3 0.402 L 653.8 0.402 L 653.8 12.402 Z" vector-effect="non-scaling-stroke"/></g></svg>
